<svg width="179" height="53" viewBox="0 0 179 53" fill="none" xmlns="http://www.w3.org/2000/svg">
<mask id="mask0_0_18" style="mask-type:luminance" maskUnits="userSpaceOnUse" x="0" y="0" width="179" height="53">
<path d="M169 0H10C4.47715 0 0 4.47715 0 10V43C0 48.5228 4.47715 53 10 53H169C174.523 53 179 48.5228 179 43V10C179 4.47715 174.523 0 169 0Z" fill="white"/>
</mask>
<g mask="url(#mask0_0_18)">
<path d="M159 7H86C80.4772 7 76 11.4772 76 17V77C76 82.5229 80.4772 87 86 87H159C164.523 87 169 82.5229 169 77V17C169 11.4772 164.523 7 159 7Z" fill="white" fill-opacity="0.1"/>
<path d="M159 7.5H86C80.7533 7.5 76.5 11.7533 76.5 17V77C76.5 82.2467 80.7533 86.5 86 86.5H159C164.247 86.5 168.5 82.2467 168.5 77V17C168.5 11.7533 164.247 7.5 159 7.5Z" stroke="white" stroke-opacity="0.1"/>
<path d="M97 28H36C30.4772 28 26 32.4772 26 38V98C26 103.523 30.4772 108 36 108H97C102.523 108 107 103.523 107 98V38C107 32.4772 102.523 28 97 28Z" fill="white" fill-opacity="0.1"/>
<path d="M97 28.5H36C30.7533 28.5 26.5 32.7533 26.5 38V98C26.5 103.247 30.7533 107.5 36 107.5H97C102.247 107.5 106.5 103.247 106.5 98V38C106.5 32.7533 102.247 28.5 97 28.5Z" stroke="white" stroke-opacity="0.1"/>
</g>
</svg>
